<?xml version="1.0" encoding="UTF-8" standalone="no"?>
<svg xmlns:dc="http://purl.org/dc/elements/1.1/" xmlns:cc="http://creativecommons.org/ns#" xmlns:rdf="http://www.w3.org/1999/02/22-rdf-syntax-ns#" xmlns:svg="http://www.w3.org/2000/svg" xmlns="http://www.w3.org/2000/svg" id="svg2" height="48" width="48" version="1.2">
  <defs id="defs4"/>
  <metadata id="metadata7">
    <rdf:RDF>
      <cc:Work rdf:about="">
        <dc:format>image/svg+xml</dc:format>
        <dc:type rdf:resource="http://purl.org/dc/dcmitype/StillImage"/>
      </cc:Work>
    </rdf:RDF>
  </metadata>
  <path d="m20.93984,12.00709l-6,6l-2.9375,0l-2,0l0,12l4.9375,0l6.125,6.0625l0.9375,-0.0624l0,-24l-1.0625,0l0,-0.0001z" id="path5491" fill="#ffffff" color="#ffffff"/>
  <path opacity="0.35" id="path2995" d="m24.62734,18.69459c-0.7154,0.18402 -0.95218,1.28899 -0.375,1.75c1.96394,1.98024 1.95814,5.13942 0,7.125c-0.016,0.016 0.008,0.0552 0,0.0624c-0.51396,0.31436 -0.61135,1.13432 -0.18534,1.56033c0.42602,0.42602 1.24598,0.32862 1.56034,-0.18533c0.016,-0.016 0.0544,0.008 0.0624,0c2.7179,-2.75598 2.7259,-7.25144 0,-10c-0.23035,-0.25621 -0.5995,-0.37926 -0.9375,-0.3125c-0.04161,-0.0026 -0.08339,-0.0026 -0.125,0l0.0001,0.0001z" fill="#ffffff" color="#ffffff"/>
  <path d="m27.43984,14.25709c-0.75694,0.17977 -0.96554,1.38962 -0.3125,1.8125c4.35066,3.5817 4.98246,10.0361 1.4375,14.4375c-0.45408,0.56376 -0.8205,0.97522 -1.375,1.4375c-0.53022,0.27338 -0.69188,1.07086 -0.30998,1.52914c0.38191,0.45829 1.19546,0.44309 1.55998,-0.02915c0.64074,-0.5342 1.16334,-1.03674 1.6875,-1.6875c4.2222,-5.24224 3.4379,-12.97902 -1.75,-17.25c-0.21663,-0.19679 -0.52271,-0.29097 -0.8125,-0.25c-0.04161,-0.0026 -0.08339,-0.0026 -0.125,0l0,0.00001z" id="path2997" opacity="0.35" fill="#ffffff" color="#ffffff"/>
  <path id="path2999" d="m30.37734,10.00709c-0.74024,0.21195 -0.90522,1.40807 -0.25,1.8125c6.67068,5.24228 7.87538,14.9399 2.6875,21.6875c-0.83328,1.08384 -1.61574,1.84566 -2.6875,2.6875c-0.42542,0.31088 -0.52964,0.98082 -0.21875,1.40625c0.31089,0.42542 0.98083,0.52963 1.40625,0.21875c1.18348,-0.9296 2.1431,-1.92916 3.0625,-3.125c5.84564,-7.60312 4.46126,-18.58732 -3.0625,-24.5c-0.22707,-0.17503 -0.53171,-0.24529 -0.8125,-0.1874c-0.04161,-0.0026 -0.08339,-0.0026 -0.125,0l0,-0.0001z" opacity="0.35" fill="#ffffff" color="#ffffff"/>
</svg>
